<svg xmlns="http://www.w3.org/2000/svg" width="676.551" height="467.174" viewBox="0 0 676.551 467.174">
  <g id="Do_you_wan_to_get_paid_on_time_Illustration" data-name="Do you wan to get paid on time Illustration" transform="translate(-365.609 -285.729)">
    <g id="Group_5576" data-name="Group 5576" transform="translate(877.8 654.185)">
      <path id="Path_3177" data-name="Path 3177" d="M1947.8,1452.28a80.943,80.943,0,0,1-15.993-17.5l35.038-22.134s-.048-.082-.15-.233a45.414,45.414,0,0,0,8.783,8.968,54.707,54.707,0,0,0,25.735,11.216c12.255,1.952,24.9-2.135,33.348-5.906a90.561,90.561,0,0,0,15.793-8.96l31.069,6-5.84,26.876c-12.14,9.315-31.437,18.52-49.32,22.07A93.669,93.669,0,0,1,1947.8,1452.28Z" transform="translate(-1931.807 -1412.408)" fill="#b75742"/>
    </g>
    <path id="Path_3178" data-name="Path 3178" d="M2120.935,582.17l8.224-4.263,8.173,4.358a1.272,1.272,0,0,0,1.854-1.331l-1.512-9.138,6.669-6.427a1.272,1.272,0,0,0-.692-2.175l-9.159-1.385-4.05-8.33a1.273,1.273,0,0,0-2.283-.013l-4.147,8.282-9.174,1.279a1.273,1.273,0,0,0-.719,2.167l6.6,6.5-1.619,9.12A1.273,1.273,0,0,0,2120.935,582.17Z" transform="translate(-1176.442 -179.706)" fill="#86b1f2"/>
    <rect id="Rectangle_717" data-name="Rectangle 717" width="404.62" height="42.354" transform="translate(522.627 569.789)" fill="#f47257"/>
    <g id="Group_5578" data-name="Group 5578" transform="translate(527.529 499.729)">
      <path id="Path_3179" data-name="Path 3179" d="M1152.83,1160.074a781.354,781.354,0,0,0-292.094-87.521q5.655-66.223,11.309-132.447a903.417,903.417,0,0,1,337.727,101.2Z" transform="translate(-860.736 -940.106)" fill="#3c8f7c"/>
      <path id="Path_3180" data-name="Path 3180" d="M888.163,1068.78q3.854-41.3,7.707-82.6c10.692,1.1,20.272-5.8,21.436-15.695a896.816,896.816,0,0,1,283.164,84.847c-3.98,9.046.69,20.216,10.323,25.21l-34.957,74.437a16.81,16.81,0,0,0-23.334,8.245,787.552,787.552,0,0,0-248.661-74.508A17.818,17.818,0,0,0,888.163,1068.78Z" transform="translate(-879.194 -960.549)" fill="#96d9c9"/>
      <g id="Group_5577" data-name="Group 5577" transform="translate(44.764 51.506)">
        <path id="Path_3181" data-name="Path 3181" d="M1343.7,1158.872c-8.224,23.685-33.586,35.75-57.11,28.519-23.509-7.287-38.617-31.845-33.33-56.436,5.271-24.548,31.368-39.258,57.821-31.077C1337.544,1108.03,1351.916,1135.232,1343.7,1158.872Z" transform="translate(-1168.947 -1097.604)" fill="#50bfa5"/>
        <path id="Path_3182" data-name="Path 3182" d="M1336.12,1206.658q.987-3.965,1.971-7.931a42.945,42.945,0,0,1-9.589-4.489,5.119,5.119,0,0,1-1.846-6.646l.146-.278a4.917,4.917,0,0,1,7.095-1.731,31.577,31.577,0,0,0,8.79,4.069c4.8,1.345,8.562.477,9.432-2.853.821-3.158-1.368-5.964-7.181-9.821-8.405-5.551-13.77-11.344-11.918-19.491,1.674-7.378,8.484-11.793,18.4-10.926q.974-3.968,1.946-7.938,4.376,1.213,8.742,2.471-.935,3.667-1.872,7.333a40.4,40.4,0,0,1,7.765,3.459,5.094,5.094,0,0,1,2.025,6.909h0a5.164,5.164,0,0,1-7.217,1.528,28.879,28.879,0,0,0-7.41-3.265c-5.695-1.618-8.11.233-8.68,2.569-.677,2.764,1.958,5.333,8.614,10.114,9.369,6.484,12.173,12.352,10.115,19.8-2.052,7.381-9.045,12.013-19.039,10.915q-1.1,4.247-2.2,8.493Q1340.174,1207.78,1336.12,1206.658Z" transform="translate(-1218.675 -1125.209)" fill="#3c8f7c"/>
        <path id="Path_3183" data-name="Path 3183" d="M1068,1143.619q-34.884-8.049-70.381-13.1.821-6.367,1.641-12.734,35.965,5.11,71.367,13.281Q1069.312,1137.343,1068,1143.619Z" transform="translate(-997.617 -1111.186)" fill="#50bfa5"/>
        <path id="Path_3184" data-name="Path 3184" d="M1631.5,1309.42q-32.463-15.875-66-28.888,2.121-6.026,4.241-12.054,33.98,13.186,66.927,29.292Q1634.086,1303.6,1631.5,1309.42Z" transform="translate(-1379.786 -1212.597)" fill="#50bfa5"/>
      </g>
    </g>
    <g id="Group_5580" data-name="Group 5580" transform="translate(532.856 437.524)">
      <path id="Path_3185" data-name="Path 3185" d="M1206.427,880.532c-94.14,19.667-183.784,59.082-264.21,116.167L877.025,884.208c92.991-66,196.639-111.575,305.486-134.315Z" transform="translate(-877.025 -749.893)" fill="#3c8f7c"/>
      <path id="Path_3186" data-name="Path 3186" d="M972.828,997.574,932.653,927c8.5-5.928,11.741-17.506,7.109-26.109,79.237-52.576,165.7-90.59,256.133-112.615,2.085,9.724,11.734,15.634,21.618,13.479q7.763,40.7,15.527,81.41c-9.1,1.985-14.73,11.677-12.647,21.394a710.99,710.99,0,0,0-224.923,98.893C990.841,994.855,980.652,992.119,972.828,997.574Z" transform="translate(-914.461 -775.724)" fill="#96d9c9"/>
      <g id="Group_5579" data-name="Group 5579" transform="translate(58.169 58.347)">
        <path id="Path_3187" data-name="Path 3187" d="M1361.937,968.534c7.081,24.06-4.943,49.78-26.322,58.991-21.4,9.156-46.187-.76-55.938-23.672-9.739-22.869,1.357-51.159,25.427-61.478C1329.163,932.029,1354.875,944.516,1361.937,968.534Z" transform="translate(-1203.797 -935.313)" fill="#50bfa5"/>
        <path id="Path_3188" data-name="Path 3188" d="M1380.151,1049.118q-1.474-3.78-2.949-7.559a37.354,37.354,0,0,1-9.571,2.528,4.649,4.649,0,0,1-5.052-4.109c-.016-.1-.031-.209-.047-.315a5.085,5.085,0,0,1,4.275-5.888,27.486,27.486,0,0,0,8.748-2.354c4.294-1.986,6.585-5.067,5.379-8.267-1.148-3.033-4.321-3.872-10.753-3.241-9.287.931-16.465-.262-19.62-7.917-2.861-6.93-.285-14.771,7.519-20.39q-1.485-3.775-2.972-7.548,3.9-1.819,7.825-3.6,1.346,3.51,2.691,7.021a35.232,35.232,0,0,1,7.652-2.188,4.625,4.625,0,0,1,5.33,4.205h0a5.319,5.319,0,0,1-4.479,5.8,25.206,25.206,0,0,0-7.282,2.116c-5.1,2.335-5.858,5.342-4.981,7.562,1.034,2.628,4.406,3,11.974,2.563,10.516-.8,15.844,2.079,18.458,9.306,2.583,7.173-.007,15.3-7.994,20.785q1.549,4.074,3.094,8.149Q1383.766,1047.432,1380.151,1049.118Z" transform="translate(-1253.107 -963.408)" fill="#3c8f7c"/>
        <path id="Path_3189" data-name="Path 3189" d="M1119.982,1138.784q-30.22,15.783-59.225,34.343l-5.86-11.168q29.385-18.808,60.055-34.824Z" transform="translate(-1054.897 -1062.114)" fill="#50bfa5"/>
        <path id="Path_3190" data-name="Path 3190" d="M1631.953,940.856q-32.779,8.022-64.761,19.006l-3.562-12.28q32.4-11.126,65.668-19.272Q1630.625,934.583,1631.953,940.856Z" transform="translate(-1397.259 -928.31)" fill="#50bfa5"/>
      </g>
    </g>
    <g id="Group_5582" data-name="Group 5582" transform="translate(549.88 516.175)">
      <path id="Path_3191" data-name="Path 3191" d="M1256.48,1124.677A715.95,715.95,0,0,0,967.5,1167.03L929.08,1040.872A827.8,827.8,0,0,1,1263.2,991.9Q1259.841,1058.29,1256.48,1124.677Z" transform="translate(-929.08 -990.396)" fill="#3c8f7c"/>
      <path id="Path_3192" data-name="Path 3192" d="M995.531,1155.375l-23.388-78.954c9.808-3.483,15.717-13.828,13.129-23.383a821.556,821.556,0,0,1,280.142-41.058c-.2,9.963,7.991,18.242,18.291,18.778q-1.786,41.453-3.571,82.906c-9.479-.492-17.322,7.394-17.52,17.351a721.463,721.463,0,0,0-246.007,36.055C1014.021,1157.52,1004.557,1152.171,995.531,1155.375Z" transform="translate(-958.06 -1004.703)" fill="#96d9c9"/>
      <g id="Group_5581" data-name="Group 5581" transform="translate(52.102 25.638)">
        <path id="Path_3193" data-name="Path 3193" d="M1429.139,1109.63c1.414,25.162-16.5,46.866-39.835,50.11-23.347,3.186-45.609-12.985-49.938-37.746-4.327-24.716,13.262-49.152,39.526-52.754C1405.153,1065.609,1427.734,1084.512,1429.139,1109.63Z" transform="translate(-1256.853 -1068.792)" fill="#50bfa5"/>
        <path id="Path_3194" data-name="Path 3194" d="M1440.591,1177.652q-.58-4.048-1.162-8.1a38.577,38.577,0,0,1-10.077-.091,4.882,4.882,0,0,1-4.051-5.317c.009-.105.018-.211.027-.316a4.941,4.941,0,0,1,5.61-4.565,28.389,28.389,0,0,0,9.22.042c4.719-.784,7.708-3.157,7.258-6.574-.431-3.24-3.381-4.894-9.905-5.989-9.423-1.562-16.26-4.62-17.606-12.866-1.222-7.466,3.158-14.371,12.2-17.739q-.593-4.047-1.187-8.093,4.293-.725,8.594-1.4.517,3.754,1.032,7.509a36.292,36.292,0,0,1,8.1-.088,4.854,4.854,0,0,1,4.3,5.484h0a5.171,5.171,0,0,1-5.792,4.43,25.968,25.968,0,0,0-7.712.116c-5.6.907-7.052,3.617-6.7,6,.414,2.817,3.671,4.067,11.274,5.656,10.612,2.012,15.223,6.214,16.13,13.9.89,7.627-3.571,14.807-12.766,18q.586,4.354,1.169,8.708Q1444.568,1176.981,1440.591,1177.652Z" transform="translate(-1311.358 -1094.265)" fill="#3c8f7c"/>
        <path id="Path_3195" data-name="Path 3195" d="M1158.32,1220.836q-33.635,7.261-66.711,17.53L1088.4,1226q33.511-10.409,67.645-17.775Z" transform="translate(-1088.401 -1162.629)" fill="#50bfa5"/>
        <path id="Path_3196" data-name="Path 3196" d="M1719.406,1167.544q-34.363-.929-68.626,1.218-.335-6.415-.671-12.829,34.715-2.173,69.587-1.236Q1719.551,1161.122,1719.406,1167.544Z" transform="translate(-1466.414 -1126.413)" fill="#50bfa5"/>
      </g>
    </g>
    <rect id="Rectangle_718" data-name="Rectangle 718" width="404.62" height="178.076" transform="translate(522.627 569.789)" fill="#f47257"/>
    <path id="Path_3197" data-name="Path 3197" d="M1833.717,1559.848H1733.595a8.233,8.233,0,0,0-8.038,8.416h0a8.234,8.234,0,0,0,8.038,8.417h-12.983a8.234,8.234,0,0,0-8.038,8.417h0a8.234,8.234,0,0,0,8.038,8.416h2.25a8.234,8.234,0,0,0-8.038,8.417,8.722,8.722,0,0,0,.676,3.38h118.218Z" transform="translate(-906.469 -857.446)" fill="#b75742"/>
    <rect id="Rectangle_719" data-name="Rectangle 719" width="368.334" height="13.828" transform="translate(537.538 578.557)" fill="#b75742"/>
    <g id="Group_5583" data-name="Group 5583" transform="translate(518.173 635.061)">
      <path id="Rectangle_720" data-name="Rectangle 720" d="M41.569,0H151.84a41.569,41.569,0,0,1,41.569,41.569V69.026a41.568,41.568,0,0,1-41.568,41.568H41.569A41.569,41.569,0,0,1,0,69.026V41.569A41.569,41.569,0,0,1,41.569,0Z" fill="#3c8f7c"/>
      <rect id="Rectangle_721" data-name="Rectangle 721" width="47.628" height="27.691" transform="translate(12.435 21.993)" fill="#f7cc7f"/>
      <rect id="Rectangle_722" data-name="Rectangle 722" width="84.46" height="5.169" transform="translate(96.704 14.978)" fill="#f7cc7f"/>
      <rect id="Rectangle_723" data-name="Rectangle 723" width="155.438" height="6.386" transform="translate(19.45 74.052)" fill="#f7cc7f"/>
      <rect id="Rectangle_724" data-name="Rectangle 724" width="155.438" height="6.386" transform="translate(19.45 89.089)" fill="#f7cc7f"/>
    </g>
    <rect id="Rectangle_725" data-name="Rectangle 725" width="171.741" height="4.59" transform="translate(542.216 615.255)" fill="#b75742"/>
    <g id="Group_5585" data-name="Group 5585" transform="translate(774.013 509.107)">
      <circle id="Ellipse_24" data-name="Ellipse 24" cx="38.248" cy="38.248" r="38.248" transform="translate(0)" fill="#fae0b2"/>
      <path id="Path_3198" data-name="Path 3198" d="M1691.616,1001.25a32.1,32.1,0,1,1-44.708-7.833A32.095,32.095,0,0,1,1691.616,1001.25Z" transform="translate(-1627.097 -981.439)" fill="#f7cc7f"/>
      <g id="Group_5584" data-name="Group 5584" transform="translate(24.682 14.881)">
        <path id="Path_3199" data-name="Path 3199" d="M1707.186,1060.23l-1.4-5.172a26.021,26.021,0,0,1-6.833.6,3.261,3.261,0,0,1-3.092-3.215l0-.207a3.255,3.255,0,0,1,3.454-3.3,18.99,18.99,0,0,0,6.181-.58c3.1-.839,4.9-2.611,4.314-4.789-.559-2.069-2.655-2.9-7.052-3.176-6.356-.384-11.066-2.032-12.495-7.313-1.3-4.792,1.064-9.461,6.58-12.18l-1.4-5.172,5.336-1.443,1.3,4.791a24.03,24.03,0,0,1,5.161-.626,3.255,3.255,0,0,1,3.256,3.219h0a3.258,3.258,0,0,1-3.327,3.3,17.311,17.311,0,0,0-4.967.615c-3.539.957-4.27,2.791-3.857,4.315.486,1.8,2.7,2.425,7.8,2.915,7.1.535,10.521,2.823,11.846,7.723,1.311,4.846-1,9.911-6.967,12.693l1.5,5.554Z" transform="translate(-1689.915 -1014.286)" fill="#fff"/>
      </g>
    </g>
    <g id="Group_5587" data-name="Group 5587" transform="translate(794.254 615.676)">
      <circle id="Ellipse_25" data-name="Ellipse 25" cx="38.248" cy="38.248" r="38.248" transform="translate(0 54.091) rotate(-45)" fill="#fae0b2"/>
      <path id="Path_3200" data-name="Path 3200" d="M1801.956,1375.566a32.1,32.1,0,1,1-44.709-7.833A32.1,32.1,0,0,1,1801.956,1375.566Z" transform="translate(-1721.595 -1339.912)" fill="#f7cc7f"/>
      <g id="Group_5586" data-name="Group 5586" transform="translate(40.524 30.724)">
        <path id="Path_3201" data-name="Path 3201" d="M1817.526,1434.547l-1.4-5.173a26.009,26.009,0,0,1-6.833.6,3.261,3.261,0,0,1-3.092-3.214l0-.208a3.255,3.255,0,0,1,3.455-3.3,19,19,0,0,0,6.181-.58c3.1-.839,4.9-2.611,4.314-4.789-.56-2.069-2.655-2.9-7.052-3.176-6.357-.384-11.067-2.031-12.5-7.313-1.3-4.791,1.064-9.461,6.581-12.179l-1.4-5.172,5.336-1.443,1.3,4.791a24.043,24.043,0,0,1,5.162-.627,3.255,3.255,0,0,1,3.256,3.22h0a3.258,3.258,0,0,1-3.328,3.3,17.318,17.318,0,0,0-4.966.615c-3.539.957-4.27,2.791-3.857,4.315.486,1.8,2.7,2.425,7.8,2.916,7.1.534,10.521,2.822,11.846,7.722,1.311,4.845-1,9.911-6.967,12.693l1.5,5.553Z" transform="translate(-1800.254 -1388.603)" fill="#fff"/>
      </g>
    </g>
    <g id="Group_5589" data-name="Group 5589" transform="translate(731.632 579.506)">
      <circle id="Ellipse_26" data-name="Ellipse 26" cx="38.248" cy="38.248" r="38.248" transform="matrix(1, -0.017, 0.017, 1, 3.497, 4.771)" fill="#fae0b2"/>
      <circle id="Ellipse_27" data-name="Ellipse 27" cx="32.095" cy="32.095" r="32.095" transform="translate(0 26.115) rotate(-24.006)" fill="#f7cc7f"/>
      <g id="Group_5588" data-name="Group 5588" transform="translate(27.076 19.814)">
        <path id="Path_3202" data-name="Path 3202" d="M1573.009,1287.809l1.827-5.037a26.008,26.008,0,0,1-5.938-3.434,3.26,3.26,0,0,1-.684-4.407l.117-.172a3.254,3.254,0,0,1,4.722-.714,18.979,18.979,0,0,0,5.392,3.076c3.022,1.1,5.514.679,6.282-1.442.731-2.015-.5-3.9-3.948-6.651-4.982-3.965-7.891-8.021-6.026-13.164,1.691-4.666,6.305-7.133,12.382-6.189l1.827-5.037,5.2,1.884-1.692,4.666a24.074,24.074,0,0,1,4.585,2.453,3.255,3.255,0,0,1,.816,4.505h0a3.258,3.258,0,0,1-4.621.792,17.311,17.311,0,0,0-4.418-2.349c-3.447-1.25-5.1-.169-5.636,1.316-.634,1.75.818,3.536,4.709,6.866,5.5,4.515,6.99,8.354,5.259,13.126-1.711,4.719-6.513,7.538-12.994,6.388l-1.961,5.409Z" transform="translate(-1567.646 -1244.639)" fill="#fff"/>
      </g>
    </g>
    <rect id="Rectangle_726" data-name="Rectangle 726" width="173.23" height="92.84" transform="translate(732.642 643.939)" fill="#f48c7f"/>
    <path id="Path_3203" data-name="Path 3203" d="M1725.557,1568.265h0a8.234,8.234,0,0,0,8.038,8.417h-12.983a8.234,8.234,0,0,0-8.038,8.417h0a8.234,8.234,0,0,0,8.038,8.416h2.25a7.706,7.706,0,0,0-3.231.709h92.71v-34.376h-78.746A8.233,8.233,0,0,0,1725.557,1568.265Z" transform="translate(-906.469 -857.446)" fill="#b75742"/>
    <g id="Group_5591" data-name="Group 5591" transform="translate(381.012 707.832)">
      <g id="Group_5590" data-name="Group 5590" transform="translate(0 34.604)">
        <path id="Path_3204" data-name="Path 3204" d="M412.709,1684.981h0a2.622,2.622,0,0,0,2.519,2.714h628.052a2.622,2.622,0,0,0,2.52-2.714h0a2.622,2.622,0,0,0-2.52-2.714H415.228A2.622,2.622,0,0,0,412.709,1684.981Z" transform="translate(-412.709 -1682.267)" fill="#13375b"/>
      </g>
      <path id="Path_3205" data-name="Path 3205" d="M1857.886,1683.355H1754.491a7.512,7.512,0,0,1-7.512-7.512h0a7.512,7.512,0,0,1,7.512-7.512h103.395a7.511,7.511,0,0,1,7.511,7.512h0A7.512,7.512,0,0,1,1857.886,1683.355Z" transform="translate(-1310.635 -1638.284)" fill="#ff4500"/>
      <path id="Path_3206" data-name="Path 3206" d="M1851.46,1637.416H1748.065a7.512,7.512,0,0,1-7.512-7.512h0a7.512,7.512,0,0,1,7.512-7.511H1851.46a7.512,7.512,0,0,1,7.511,7.511h0A7.512,7.512,0,0,1,1851.46,1637.416Z" transform="translate(-1306.31 -1607.369)" fill="#ff774d"/>
      <path id="Path_3207" data-name="Path 3207" d="M1888.558,1591.477H1785.163a7.512,7.512,0,0,1-7.511-7.512h0a7.512,7.512,0,0,1,7.511-7.512h103.395a7.512,7.512,0,0,1,7.512,7.512h0A7.512,7.512,0,0,1,1888.558,1591.477Z" transform="translate(-1331.277 -1576.453)" fill="#ff4500"/>
    </g>
    <path id="Path_3208" data-name="Path 3208" d="M1668.27,627l1.315,8.9-14.085,3.7.319,13.249-10.088,4.491,2.273,5.107,13.493-6.007-.3-12.556,14.653-3.848-1.98-13.392Z" transform="translate(-861.486 -229.424)" fill="#466eb6"/>
    <g id="Group_5592" data-name="Group 5592" transform="translate(666.837 311.683)">
      <path id="Path_3209" data-name="Path 3209" d="M1293.457,422.809l2.714-6.736a35.262,35.262,0,0,1-7.88-4.935,4.42,4.42,0,0,1-.716-6l.167-.226a4.411,4.411,0,0,1,6.431-.743,25.73,25.73,0,0,0,7.157,4.424c4.042,1.629,7.436,1.183,8.578-1.653,1.086-2.694-.5-5.311-5.03-9.2-6.558-5.609-10.306-11.241-7.534-18.119,2.514-6.24,8.882-9.361,17.069-7.793l2.714-6.736,6.949,2.8-2.515,6.239a32.6,32.6,0,0,1,6.094,3.541,4.412,4.412,0,0,1,.89,6.143h0a4.416,4.416,0,0,1-6.3.851,23.468,23.468,0,0,0-5.873-3.393c-4.609-1.857-6.9-.472-7.7,1.513-.943,2.34.939,4.829,6.051,9.527,7.237,6.378,9.069,11.649,6.5,18.031-2.544,6.311-9.182,9.9-17.907,8.031l-2.914,7.233Z" transform="translate(-1286.715 -365.093)" fill="#96d9c9"/>
    </g>
    <path id="Path_3210" data-name="Path 3210" d="M1254.325,683a2.822,2.822,0,0,1-.484,3.555,27.759,27.759,0,0,1-8.814,5.316,22.31,22.31,0,0,1-17.161-.236,20.555,20.555,0,0,1-8.833-8.034l-3.26,1.224a2.143,2.143,0,0,1-2.759-1.253l-.031-.084a2.142,2.142,0,0,1,1.253-2.759l2.675-1c-.429-.888-.732-1.442-.92-1.944a21.074,21.074,0,0,1-.847-3.02l-2.759,1.036a2.143,2.143,0,0,1-2.759-1.254h0a2.142,2.142,0,0,1,1.253-2.759l3.344-1.255a22.008,22.008,0,0,1,1.6-11.758,23.672,23.672,0,0,1,13.447-12.2,24.188,24.188,0,0,1,8.366-1.659,2.891,2.891,0,0,1,2.919,2.755l0,.049a2.9,2.9,0,0,1-2.793,3.024,20.741,20.741,0,0,0-6.506,1.38,15.423,15.423,0,0,0-8.776,7.872,12.863,12.863,0,0,0-.981,7.808l18.811-7.06a2.143,2.143,0,0,1,2.759,1.254h0a2.143,2.143,0,0,1-1.253,2.759l-19.646,7.374c.261.951.523,1.9.743,2.488.282.753.564,1.5,1.024,2.477l19.688-7.389a2.188,2.188,0,0,1,2.817,1.279h0a2.188,2.188,0,0,1-1.279,2.817l-18.852,7.076a13.618,13.618,0,0,0,5.52,4.8,15.066,15.066,0,0,0,12.071.143,23.6,23.6,0,0,0,6.278-3.539,2.822,2.822,0,0,1,4.151.73Z" transform="translate(-567.906 -241.718)" fill="#86b1f2"/>
    <path id="Path_3211" data-name="Path 3211" d="M1121.844,509.422l-8.541.867-2.912-13.588-12.644-.273-3.842-9.812-4.967,1.945,5.139,13.124,11.982.258,3.03,14.135,12.852-1.3Z" transform="translate(-486.78 -135.191)" fill="#50bfa5"/>
    <g id="Group_5593" data-name="Group 5593" transform="translate(723.65 349.094)">
      <path id="Path_3212" data-name="Path 3212" d="M1470.556,494.464l9.137,3.014s14.487-4.695,15.914-7.647,1.83-10.117,3.89-10.312a6.241,6.241,0,0,1,6.994,5.378c.689,3.559-4.523,13.846-3.709,14.941.509.685,5.711,2.568,9.534,3.881a7.122,7.122,0,0,1,4.714,5.744v.008a3.921,3.921,0,0,1-2.45,4.213l-2.628,1.015.839,2.714a3.92,3.92,0,0,1-2.478,4.861l-2.034.682.65,1.653a3.917,3.917,0,0,1-2.53,5.181l-1.776.516.073.475a3.914,3.914,0,0,1-2.85,4.38l-1.765.463-24.334-8.031a17.349,17.349,0,0,1-6.168-3.582l-8.081-4.265a2.007,2.007,0,0,1-.941-2.44l7.492-21.575A2,2,0,0,1,1470.556,494.464Z" transform="translate(-1460.443 -479.489)" fill="#ff4500"/>
    </g>
    <path id="Path_3213" data-name="Path 3213" d="M1008.257,755.777l1.935-9.589,9-3.843a1.344,1.344,0,0,0,.132-2.407l-8.522-4.8-.874-9.742a1.344,1.344,0,0,0-2.249-.87l-7.2,6.62-9.536-2.179a1.344,1.344,0,0,0-1.522,1.87l4.071,8.895-5.019,8.4a1.344,1.344,0,0,0,1.308,2.025l9.717-1.123,6.434,7.368A1.345,1.345,0,0,0,1008.257,755.777Z" transform="translate(-419.036 -295.056)" fill="#ff4500"/>
    <g id="Group_5596" data-name="Group 5596" transform="translate(365.608 285.729)">
      <g id="Group_5594" data-name="Group 5594" transform="translate(0 163.29)">
        <path id="Path_3214" data-name="Path 3214" d="M661.4,1541.029s-11.99,8.644-13.878,11.223c-2.72,3.715,20.313,10.662,17.8,6.312-.578-1-2.236-4.366-2.308-4.7-.386-1.771,4.5-6.54,4.5-6.54Z" transform="translate(-555.176 -1293.801)" fill="#f7a491"/>
        <path id="Path_3215" data-name="Path 3215" d="M667.919,1578.69l-8.142-11.5s-5.083-1.182-10.3-7.051a19.075,19.075,0,0,0-7.574,5.669,132.784,132.784,0,0,0,13.848,12.484,38.46,38.46,0,0,0,11.858,6.734C674.49,1587.348,667.919,1578.69,667.919,1578.69Z" transform="translate(-551.546 -1306.659)" fill="#f7cc7f"/>
        <path id="Path_3216" data-name="Path 3216" d="M371.63,1056.747s1.474,1.3,2,1.7c.611.465,2.546,1.722,2.546,1.722s7,3.98,7.235,3.456a3.464,3.464,0,0,0-.119-2.433c-.346-.4-1.354-.807-1.7-1.2a1.285,1.285,0,0,1-.019-1.643c.445-.444,2.837.863,2.837.863a8.922,8.922,0,0,1,2.747,2.376c2.806,4.5,1.956,4.766,2.331,5.334.444.672,10.259,5.128,10.259,5.128s29.346,12.2,30.927,12.865h.02c.214,1.359-.513,2.609-.886,3.813-.7,4.192-1.95,4.47-2.9,8.513-4.5-2.277-35.659-19.441-38.826-21.229,0,0-4.745-.811-7.71-1.416s-5.55-2.482-6.362-2.779a27.945,27.945,0,0,1-5.691-3.45c-2.514-1.949.732-1.215.732-1.215s5.284,2.8,5.421,2.357c.106-.342-2.865-1.706-5.669-3.834-.721-.547-1.43-1.089-2.078-1.593-1.7-1.321-1.4-2.708.589-1.6a22.148,22.148,0,0,1,2.615,1.666,18.345,18.345,0,0,0,2.539,1.421,24.046,24.046,0,0,0,2.625,1.449c0-.1.419-.14-.329-.744-.9-.726-3.139-1.86-4.381-3.026-.7-.662-2.257-1.958-2.257-1.958a19.437,19.437,0,0,1-1.9-2.54c.527-.855,2.339.405,3.181,1.424a14.935,14.935,0,0,1,2.46,1.794s3.85,2.15,4.146,1.622c.127-.224-2.085-1.817-4.017-3.709-1.794-1.757-3.326-3.814-3.042-4.208C369.435,1055,371.63,1056.747,371.63,1056.747Z" transform="translate(-365.608 -967.064)" fill="#f8a492"/>
        <path id="Path_3217" data-name="Path 3217" d="M634.339,1265.053l1.9,9.379,47.677,43.366-34.128,34.537,9.216,9.418s50.4-37.012,52.22-41.862c2.8-7.468-36.131-56.932-36.131-56.932Z" transform="translate(-546.457 -1106.668)" fill="#b75742"/>
        <path id="Path_3218" data-name="Path 3218" d="M509.051,1616.2s-9.619,10.483-11.507,13.061c-2.72,3.715,17.591,9.2,15.078,4.849-.578-1-2.236-4.367-2.308-4.7-.386-1.771,4.5-6.541,4.5-6.541Z" transform="translate(-454.229 -1344.389)" fill="#f7a491"/>
        <path id="Path_3219" data-name="Path 3219" d="M517.785,1659.99l-13.238-4.838s-5,2.274-12.632.411a17.524,17.524,0,0,0-2.86,8.612s25.092,3.2,32.074,1.2S517.785,1659.99,517.785,1659.99Z" transform="translate(-448.684 -1370.602)" fill="#f7cc7f"/>
        <path id="Path_3220" data-name="Path 3220" d="M556.681,1275.019l2.141,59.175-42.3,51.869,11.445,6.267s46.8-40.164,51.936-51.353c3.187-6.94,13.911-69.667,13.911-69.667Z" transform="translate(-467.166 -1112.288)" fill="#f47458"/>
        <path id="Path_3221" data-name="Path 3221" d="M690.077,1090.441c-3.878-8.752-3.429-71.492-18.521-86.187-5.31.9-9.1,1.4-9.983,1.633-.787,6.463-1.654,30.179-2.186,51.916-.355,14.48.011,29.666-1.772,37.672C656.51,1100.436,693.619,1098.435,690.077,1090.441Z" transform="translate(-562.104 -932.567)" fill="#fae0b2"/>
        <path id="Path_3222" data-name="Path 3222" d="M503.253,1012.441c-4.236.966-7.356,1.645-12.909,9.847-5.316,7.852-17.119,26.486-17.119,26.486l-31.09-13.809-1.453,15.747s35.171,18.283,40.134,16.635,18.914-22.042,19.946-23.418c.242-.324-1.171,21.781-1.171,25.313s-6.743,34.281-6.743,34.281,17.109,4.211,20.448-3.438c10.238-23.452,2.379-90.9,2.379-90.9S506.3,1011.745,503.253,1012.441Z" transform="translate(-416.131 -935.883)" fill="#ff4500"/>
        <path id="Path_3223" data-name="Path 3223" d="M821.783,794.457c-1.307-1.095-1.877-3.716-2.092-5.4l-.581-2.234c.53-.217,10.9-1.693,14.025-1.773a5.689,5.689,0,0,1,.359,2.359c-.465,2.556-3.728,19.149-3.728,19.149l-8.929.178S822.779,796.891,821.783,794.457Z" transform="translate(-670.802 -785.045)" fill="#f7a491"/>
        <path id="Path_3224" data-name="Path 3224" d="M710.992,898.327s6.127,17.433,11.168,14.921,33.365-31.386,33.645-32.782,2.241-36.838,2.241-36.838l-11.2-2.233L740.4,870.42s-20.726,19.814-24.928,21.768A7.787,7.787,0,0,0,710.992,898.327Z" transform="translate(-598.042 -822.968)" fill="#ff4500"/>
        <path id="Path_3225" data-name="Path 3225" d="M720.332,1089.589a19,19,0,0,0,6.9-1.148s-6.458-36.4-10.213-72.5c-1.483-14.259-2.86-20.1-8.743-19.073-1.7.3-6.309,2.053-7.982,2.336,14.783,41.826,14.834,74.021,16.927,83.357C718.273,1087.248,719.188,1089.619,720.332,1089.589Z" transform="translate(-590.844 -927.52)" fill="#ff4500"/>
        <path id="Path_3226" data-name="Path 3226" d="M672.976,965.343l1.549,6.319s.353,5.5-2.2,6c-3.08.6-7.656-4.012-7.656-4.012l-2.651-17.821Z" transform="translate(-565.083 -899.974)" fill="#f7a491"/>
        <path id="Path_3227" data-name="Path 3227" d="M672.976,965.343l1.549,6.319s.353,5.5-2.2,6c-3.08.6-7.656-4.012-7.656-4.012l-2.651-17.821Z" transform="translate(-565.083 -899.974)" fill="#f7a491"/>
        <path id="Path_3228" data-name="Path 3228" d="M662.1,956.075l10.932,9.436,1.157,4.721C670.009,969.227,664.051,964.629,662.1,956.075Z" transform="translate(-565.138 -900.143)" fill="#f47458"/>
        <path id="Path_3229" data-name="Path 3229" d="M671.285,905.935a6.456,6.456,0,0,1,5.952,4.465,56.079,56.079,0,0,1,2.385,9.149c1.157,6.854-2.746,13.127-6.142,13.628S662,931.428,660.207,921.72c-.767-4.161-1.776-9.62,1.647-12.488A15.388,15.388,0,0,1,671.285,905.935Z" transform="translate(-563.356 -866.4)" fill="#f7a491"/>
        <path id="Path_3230" data-name="Path 3230" d="M639.378,910.834s-11.971-10.668-12.494-19,7.175-12.8,13.756-13.031a44.673,44.673,0,0,1,8.055.415c6.594.831,10.868,3.754,9.364,9.157-2.019,7.253-15.706,1.134-18.5,3.386-2.309,1.858,1.434,6.326-.809,8.031-2.108,1.6-1.034,1.059-.336,4.106A53.844,53.844,0,0,1,639.378,910.834Z" transform="translate(-541.423 -848.117)" fill="#184655"/>
        <path id="Path_3231" data-name="Path 3231" d="M650.89,939.137c.3,2,1.518,3.471,2.727,3.292s1.949-1.942,1.653-3.939-1.517-3.471-2.727-3.293S650.594,937.14,650.89,939.137Z" transform="translate(-557.551 -886.084)" fill="#f7a491"/>
        <path id="Path_3232" data-name="Path 3232" d="M829.142,788.311a14.384,14.384,0,0,1,3.866,3.656s5.048-3.236,4.872-4.261c-.235-1.36-5.395,1.164-5.395,1.164Z" transform="translate(-677.553 -786.565)" fill="#f47458"/>
      </g>
      <g id="Group_5595" data-name="Group 5595" transform="translate(13.626)">
        <path id="Path_3233" data-name="Path 3233" d="M415.066,383.741l136.311,70.186c7.335,3.777,16.609.377,20.713-7.594L606.9,378.728c4.1-7.971,1.485-17.494-5.85-21.271L464.738,287.271c-7.335-3.777-16.608-.377-20.713,7.594l-34.81,67.605C405.112,370.441,407.731,379.965,415.066,383.741Z" transform="translate(-407.276 -285.729)" fill="#96d9c9"/>
        <rect id="Rectangle_727" data-name="Rectangle 727" width="23.068" height="183.196" transform="translate(2.723 75.222) rotate(-62.756)" fill="#355389"/>
      </g>
      <rect id="Rectangle_728" data-name="Rectangle 728" width="40.39" height="22.404" transform="translate(68.406 11.196) rotate(27.293)" fill="#ff4500"/>
      <path id="Path_3234" data-name="Path 3234" d="M822.341,779.126c-.237-.641-.7-1.536-.475-1.888,1.454-2.22-.113-4.634-1.171-2.745-.614,1.1-1.688,3.512-1.6,4.766.066.91.989,4.377.989,4.377A3.219,3.219,0,0,0,822.341,779.126Z" transform="translate(-670.791 -614.196)" fill="#f7a491"/>
    </g>
    <g id="Group_5602" data-name="Group 5602" transform="translate(829.685 319.128)">
      <g id="Group_5601" data-name="Group 5601" transform="translate(0 0)">
        <g id="Group_5598" data-name="Group 5598" transform="translate(44.784 78.361)">
          <path id="Path_3235" data-name="Path 3235" d="M2032.208,1504.215s-.839,10.45-.158,13.846c.365,1.818,2.395,5.562,1.464,7.273a4.638,4.638,0,0,1-2,2.139l-24.136.382c-1.315.021-.446-.811.614-1.578,1.735-1.254,3.135-2.084,8.678-4.721.361-.172,1.677-.994,2.152-1.28a16.612,16.612,0,0,0,3.453-3c1.733-1.9,1.885-11.1,1.885-11.1Z" transform="translate(-1978.889 -1217.494)" fill="#f7a491"/>
          <path id="Path_3236" data-name="Path 3236" d="M2009.212,1074.106s-10.374-5.115-8.379,6.008,17.2,136.205,17.2,136.205l14.237.79s1.818-41.7,1.42-47.692-2.758-15.254-2.758-15.254l-1.208-37-13.432-45.679Z" transform="translate(-1974.757 -926.282)" fill="#355389"/>
          <path id="Path_3237" data-name="Path 3237" d="M2015.251,1552.228a22.2,22.2,0,0,0,13.741-.531c.681,1.9,1.583,4.277,1.1,5.649-.586,1.68-1.35,2.428-2.087,2.446-5.83.151-21.427-.012-25.873.045a.713.713,0,0,1-.564-1.174C2002.675,1557.37,2014.775,1552.514,2015.251,1552.228Z" transform="translate(-1975.311 -1249.449)" fill="#3c8f7c"/>
          <path id="Path_3238" data-name="Path 3238" d="M1949.545,700.123s-8.771-16.876-10.132-23.072-6.073-37.4-5.676-39.405,7.849-6.844,6.929-8.551-8.018-1.711-9.642-1.565a14.7,14.7,0,0,0-6.29,2.246c-1.4,1.153,1.572,38.543,2.459,46.593s11.784,32.84,11.784,32.84Z" transform="translate(-1923.468 -627.471)" fill="#f7a491"/>
          <g id="Group_5597" data-name="Group 5597" transform="translate(13.487 46.352)">
            <path id="Path_3239" data-name="Path 3239" d="M2210.329,1215.392s7.235-7.586,8.845-10.652c.863-1.642,1.644-5.828,3.445-6.571a4.641,4.641,0,0,1,2.9-.4l18.984,14.909c1.035.812-.164.911-1.471.838-2.138-.118-3.748-.357-9.713-1.8-.389-.094-1.93-.284-2.478-.362a16.6,16.6,0,0,0-4.571.154c-2.542.382-8.457,7.432-8.457,7.432Z" transform="translate(-2129.4 -1057.564)" fill="#f7a491"/>
            <path id="Path_3240" data-name="Path 3240" d="M2250.389,1210.519a22.2,22.2,0,0,0-11.006-8.245c.666-1.9,1.4-4.389,2.631-5.154,1.514-.935,2.558-.741,3.142-.292,4.623,3.557,16.722,13.287,20.21,16.042a.714.714,0,0,1-.3,1.268C2263.394,1214.449,2250.937,1210.6,2250.389,1210.519Z" transform="translate(-2148.953 -1056.733)" fill="#3c8f7c"/>
            <path id="Path_3241" data-name="Path 3241" d="M2078.514,790.368c-4.5-9.445-14.48-14.645-24.145-12.128a22.228,22.228,0,0,0-14.409-8.766c-11.007-1.56-25.21,3.779-23.76,15.27-3.479,8.037-2.625,19.111,4.321,24.54-1.276,10.564,9.316,19.935,21.852,18.671,5.044,6.962,13.811,11.046,22.013,9.456a49.608,49.608,0,0,1,5.472-1.01c-.643-.072,14.3,9.713,24.6-7.711C2104.975,810.91,2094.622,791.035,2078.514,790.368Z" transform="translate(-1997.415 -769.209)" fill="#184655"/>
            <path id="Path_3242" data-name="Path 3242" d="M2014.207,1072.766s23.265-10.345,23.631-9.165c2.917,9.4,11.992,6.364,17.38,22.912,2.256,6.929,4.572,53.022,4.572,53.022s9.175-7.613,22.285-20.916c1.006-1.021,10.862,8.353,10.862,8.353-26.023,35.16-37.249,36.994-41.592,35.025-9.064-4.109-28.19-61.589-28.159-61.583C2020.891,1095.94,2014.207,1072.766,2014.207,1072.766Z" transform="translate(-1997.416 -967.263)" fill="#466eb6"/>
            <path id="Path_3243" data-name="Path 3243" d="M2132.15,871.446s33.629-.043,40.828-.459c6.518-.376,32.363.282,33.373.165s7.691-11.431,8.8-10.216-3.717,5.61-2.225,6.75,17.534-1.414,17.321-.228c-.4,2.219-9.757,1.936-9.747,3.007s9.794-.6,10.458,1.178-9.412.725-9.815,1.519,9.345,2.246,8.347,3.9c-.541.9-8.636-1.5-8.6-.276s5.945,4.01,5.22,4.985-4.634-2.993-8.061-3.042-5.88-1.837-11.35-.337c-2.7.741-23.322,3.262-40.745,4.751-17.862,1.526-32.5,2.011-32.5,2.011Z" transform="translate(-2076.788 -830.877)" fill="#f7a491"/>
            <path id="Path_3244" data-name="Path 3244" d="M1968.359,878.6a42.778,42.778,0,0,1,.86-11.349c-1.634-5.608-5.107-17.574-6.357-19.925,0,0,5.855-11.252,11.849-11.175,0,0,6.121,13.8,10.853,16.266a11.736,11.736,0,0,0,2.38.71c4.57-.033,20.536-.517,23.517-.57l-1.677,22.654c-11.571,22.68-8.437,34.582-4.035,38.984,2.071,2.07-28.873,10.476-30.3,7.542C1973.771,918.283,1969.261,889.52,1968.359,878.6Z" transform="translate(-1962.862 -814.262)" fill="#ff4500"/>
            <path id="Path_3245" data-name="Path 3245" d="M2086.662,887.134c2.945-1.407,24.259-.7,24.259-.7s2.978,14.842.573,18.409c0,0-19.058,2.836-18.516,4.4Z" transform="translate(-2046.175 -847.978)" fill="#ff4500"/>
            <path id="Path_3246" data-name="Path 3246" d="M2040.684,850.872a110.47,110.47,0,0,0,.005,11.466c.379,3.372-3.459,11.276-10.605,11.414s-1.049-7.584-.422-10.9,1.376-16.305,1.376-16.305Z" transform="translate(-2005.784 -821.253)" fill="#f7a491"/>
            <path id="Path_3247" data-name="Path 3247" d="M2039.21,846.544s-.174,3.015-.425,6.51a8.312,8.312,0,0,0,9.928,2.425c.045-2.506.142-4.607.142-4.607Z" transform="translate(-2013.956 -821.253)" fill="#f47458"/>
            <path id="Path_3248" data-name="Path 3248" d="M2043.59,785.449a11.876,11.876,0,0,1,6.317,5.257c2.27,4.047,3.226,15.568-5.5,20.314s-14.706-3.23-14.308-10.58S2032.747,783.4,2043.59,785.449Z" transform="translate(-2008.099 -779.95)" fill="#f7a491"/>
            <path id="Path_3249" data-name="Path 3249" d="M2024.2,816.246c.59,1.821,1.93,3.018,2.99,2.674s1.441-2.1.85-3.92-1.93-3.018-2.99-2.674S2023.609,814.425,2024.2,816.246Z" transform="translate(-2003.953 -798.186)" fill="#f7a491"/>
            <path id="Path_3250" data-name="Path 3250" d="M2067.667,785.027s4.429,12.113,8.96,13.48,4.057,7.276,4.057,7.276.838-13.664-3.26-17.093A18.19,18.19,0,0,0,2067.667,785.027Z" transform="translate(-2033.393 -779.854)" fill="#184655"/>
            <path id="Path_3251" data-name="Path 3251" d="M2088.216,827.988c-.738,1.867-.312,3.784.95,4.283s2.882-.611,3.62-2.478.313-3.785-.95-4.283S2088.953,826.121,2088.216,827.988Z" transform="translate(-2046.978 -807.018)" fill="#f7a491"/>
          </g>
          <path id="Path_3252" data-name="Path 3252" d="M1921.621,637.043s9.852.43,11.01.43,4.523-3.481,4.523-3.481Z" transform="translate(-1921.621 -631.86)" fill="#f47458"/>
        </g>
        <g id="Group_5600" data-name="Group 5600" transform="translate(0)">
          <circle id="Ellipse_28" data-name="Ellipse 28" cx="38.248" cy="38.248" r="38.248" transform="matrix(0.976, -0.22, 0.22, 0.976, 0, 16.823)" fill="#fae0b2"/>
          <path id="Path_3253" data-name="Path 3253" d="M1884.71,443.18A32.1,32.1,0,1,1,1840,435.347,32.095,32.095,0,0,1,1884.71,443.18Z" transform="translate(-1812.716 -415.895)" fill="#f7cc7f"/>
          <g id="Group_5599" data-name="Group 5599" transform="translate(32.157 22.356)">
            <path id="Path_3254" data-name="Path 3254" d="M1900.279,502.161l-1.4-5.173a26.019,26.019,0,0,1-6.833.6,3.261,3.261,0,0,1-3.091-3.215l0-.207a3.254,3.254,0,0,1,3.454-3.3,18.987,18.987,0,0,0,6.181-.58c3.1-.839,4.9-2.611,4.314-4.789-.56-2.069-2.655-2.9-7.053-3.176-6.355-.385-11.066-2.032-12.495-7.313-1.3-4.791,1.064-9.461,6.58-12.18l-1.4-5.172,5.336-1.443,1.3,4.791a24.058,24.058,0,0,1,5.162-.627,3.256,3.256,0,0,1,3.257,3.22h0a3.258,3.258,0,0,1-3.327,3.3,17.327,17.327,0,0,0-4.967.615c-3.539.957-4.269,2.791-3.858,4.315.486,1.8,2.7,2.425,7.8,2.915,7.1.535,10.52,2.823,11.846,7.722,1.31,4.846-1,9.911-6.967,12.693l1.5,5.554Z" transform="translate(-1883.008 -456.217)" fill="#fff"/>
          </g>
        </g>
      </g>
      <path id="Path_3255" data-name="Path 3255" d="M1955.287,631.243l4.067-3.656s-1.919-2.294-1.122-2.735c1.3-.717,3.519,2.056,3.32,2.729s-2.584,2.846-2.584,2.846Z" transform="translate(-1899.493 -547.269)" fill="#f7a491"/>
    </g>
  </g>
</svg>
